 <svg version="1.0" xmlns="http://www.w3.org/2000/svg" viewBox="0 0 700.000000 976.000000" preserveAspectRatio="xMidYMid meet">
<g transform="translate(0.000000,976.000000) scale(0.100000,-0.100000)" stroke="none">
<path d="M3428 9718 c-8 -7 -36 -40 -61 -73 -25 -33 -351 -364 -724 -735 -373
-371 -686 -686 -695 -700 -55 -78 16 -247 117 -280 79 -26 85 -21 381 273 151
150 281 279 289 287 102 100 370 378 407 423 68 80 118 78 154 -5 18 -42 19
-132 24 -2683 5 -2536 6 -2642 23 -2669 29 -43 78 -58 173 -54 89 3 126 21
151 69 10 19 13 577 13 2610 0 1827 3 2603 11 2644 14 74 33 113 64 127 28 13
63 -6 104 -56 42 -51 470 -476 480 -476 4 0 29 -27 55 -59 25 -33 68 -75 95
-95 26 -20 67 -60 89 -89 23 -29 65 -70 94 -91 29 -21 68 -59 86 -83 62 -82
126 -102 202 -63 91 46 142 206 88 276 -12 16 -25 31 -29 34 -4 3 -308 301
-675 662 -368 361 -694 676 -724 699 -30 24 -74 60 -97 81 -45 40 -69 46 -95
26z"></path>
<path d="M4644 6991 c-168 -7 -182 -12 -210 -78 -19 -44 -18 -154 2 -202 33
-82 -58 -75 1094 -81 807 -4 1030 -8 1047 -18 13 -7 31 -27 40 -45 17 -30 18
-191 21 -3047 2 -2248 0 -3026 -9 -3057 -14 -51 -41 -77 -94 -92 -30 -9 -823
-11 -3055 -9 -3335 3 -3053 -3 -3094 68 l-21 35 0 3035 c0 2863 1 3037 18
3067 9 18 27 38 40 45 17 10 240 14 1047 18 968 5 1026 6 1052 23 36 25 58 85
58 163 0 76 -17 122 -55 152 l-28 22 -1248 0 -1249 0 0 -3495 0 -3495 3500 0
3500 0 0 3495 0 3495 -983 0 c-541 0 -1037 2 -1103 4 -65 2 -187 1 -270 -3z"></path>
</g>
</svg>